<?xml version="1.0" encoding="UTF-8"?> <svg xmlns="http://www.w3.org/2000/svg" version="1.2" viewBox="450 450 4600 1600" width="4600" height="1600"><style> .s0 { fill: #0d0b21 } </style><g><path class="s0" d="m1561.74 621.89h290.36v1247.4h-290.36v-130.38c-127.38 148.08-284.45 168.88-373.34 168.88-385.14 0-604.4-319.95-604.4-663.7 0-405.93 278.46-654.79 607.4-654.79 91.89 0 251.86 23.7 370.34 177.77zm-681.49 628.1c0 216.26 136.28 397.04 346.65 397.04 183.67 0 352.54-133.28 352.54-394.04 0-272.56-168.87-402.94-352.54-402.94-210.37 0-346.65 177.78-346.65 399.94zm1317.59-628.1h290.35v112.58c32.6-38.49 79.99-79.98 121.48-103.68 56.29-32.59 112.58-41.49 177.77-41.49 71.09 0 148.18 11.89 228.17 59.29l-118.48 263.65c-65.19-41.49-118.48-44.39-148.18-44.39-62.19 0-124.48 8.9-180.77 68.19-79.99 85.89-79.99 204.47-79.99 287.35v645.9h-290.35zm1005.24 0h290.35v115.58c97.78-118.48 213.37-148.17 308.15-148.17 130.38 0 251.86 62.19 322.95 183.67 103.68-148.08 260.76-183.67 370.34-183.67 151.07 0 284.45 71.08 355.54 195.56 23.7 41.5 65.19 133.28 65.19 314.05v770.38h-290.35v-687.39c0-139.28-14.8-195.57-26.7-222.16-17.8-47.4-62.19-109.59-165.87-109.59-71.09 0-133.28 38.5-171.87 91.89-50.4 71.09-56.29 177.77-56.29 284.45v642.9h-290.36v-687.49c0-139.28-14.8-195.57-26.69-222.16-17.8-47.4-62.19-109.59-165.98-109.59-71.09 0-133.28 38.5-171.87 91.89-50.39 71.09-56.29 177.77-56.29 284.45v642.9h-290.35z"></path></g></svg> 