<?xml version="1.0" encoding="UTF-8"?>
<svg version="1.1" viewBox="293.74 167.12 61.12 67.171" xml:space="preserve" xmlns="http://www.w3.org/2000/svg">
<path d="m324.3 167.12c-2.0699 0-4.1378 0.53622-5.9909 1.6051l-4.1579 2.3983c-3.706 2.1378-5.9909 6.0907-5.9909 10.366v5.4571c0 1.6864 0.47656 3.2052 1.1007 4.4834-0.074 0.0914-0.15095 0.17499-0.22158 0.27408-1.0178 1.4193-0.69593 5.1603-2.5239 8.8326-0.2932 0.58921-2.5648 2.873-2.7652 3.5062-1.634 5.1637-3.5006 8.5628-1.2294 10.834 3.0971 3.0972 2.1314-9.3194 6.2554-9.3194 0.10838 0 0.30191 4.5979 0.63821 5.3614 0.71116 1.6144 2.2378 3.745 3.8592 4.2654 0.71581 0.22961 1.4502 0.14598 2.1409-0.43505 0.69815-0.58728-2.9244-2.8032-3.3192-5.6172-0.13643-0.97186 1.8048-6.2193 3.8298-5.2343 3.4492 1.6777 10.122 0.99076 12.894 0.1281 0.50738-0.15807-1.6307 10.797 2.5017 10.929 1.4504 0.0483 2.746-0.72446 3.1528-1.5379 0.45769-0.91502-2.6505-1.144-2.974-2.1146-0.4635-1.3904 1.2749-7.9958 1.448-7.8228 2.8928 2.8929 8.5782 12.48 13.632 10.459 2.5154-1.0061-8.9519-5.0024-8.9519-13.615 0-0.62474 6.8415 1.1235 10.07-2.1047 1.5286-1.5286-0.77595-6.8782-2.2086-7.3247 0.53955-1.719 0.56964-2.7916-0.0339-3.3718-0.36625-0.35143-1.8883 2.4444-2.4639 2.9714-0.0435 0.0387-1.2748-4.2147-2.4257-3.0639-0.71513 0.71513-0.15482 2.8355-1.1488 3.8297-2.7072 2.7072-16.901-0.49088-20.043-1.2764-2.5141-0.47952-5.0017-0.93821-7.0786-0.44762-0.38512-0.82684-0.67493-1.7158-0.67493-2.589v-5.4571c0-3.0473 1.6204-5.85 4.2618-7.3737l4.1579-2.3978c2.6414-1.5236 5.8914-1.5236 8.5328 0l19.74 11.386c1.9147 1.1044 3.0897 3.1442 3.0897 5.3532v24.132c0 2.2089-1.175 4.2487-3.0897 5.3532l-20.921 12.066c-1.9147 1.1045-4.2653 1.1045-6.18 0l-20.922-12.066c-1.9147-1.1045-3.0898-3.1443-3.0898-5.3532v-24.132c0-2.2093 1.1752-4.2478 3.0898-5.3532l0.0193-0.01c0.6233 0.37801 1.3525 0.59684 2.1286 0.59684 2.2671 0 4.131-1.8639 4.131-4.131s-1.8639-4.1326-4.131-4.1326c-2.2671 0-4.133 1.8655-4.133 4.1326 0 0.23348 0.0194 0.46212 0.059 0.68526-2.857 1.7459-4.6214 4.8559-4.6214 8.2129v24.132c0 3.4372 1.84 6.6276 4.8194 8.3463l20.921 12.066c2.9793 1.7186 6.6594 1.7186 9.6387 0l20.921-12.066c2.9793-1.7186 4.8194-4.909 4.8194-8.3463v-24.132c0-3.4372-1.84-6.6272-4.8194-8.3458l-19.749-11.386c-1.853-1.0689-3.9214-1.6051-5.9914-1.6051zm-21.864 10.761c0.94035 0 1.6759 0.73761 1.6759 1.6779 0 0.94035-0.73555 1.6759-1.6759 1.6759-0.94029 0-1.6779-0.73553-1.6779-1.6759 0-0.94029 0.73763-1.6779 1.6779-1.6779z" />
</svg>
