<?xml version="1.0" encoding="UTF-8" standalone="no"?>
<!-- Created with Inkscape (http://www.inkscape.org/) -->

<svg
   width="282.54761mm"
   height="89.225937mm"
   viewBox="0 0 282.54761 89.225935"
   version="1.1"
   id="svg1"
   xml:space="preserve"
   xmlns="http://www.w3.org/2000/svg"
   xmlns:svg="http://www.w3.org/2000/svg"><defs
     id="defs1" /><g
     id="layer1"
     transform="translate(-29.642945,-109.22237)"><path
       id="path592"
       style="color:#000000;fill:#000000;stroke:none;stroke-width:6.42391;stroke-linejoin:round;-inkscape-stroke:none;paint-order:fill markers stroke"
       d="m 70.233869,109.22237 c -2.749552,0 -5.49646,0.71228 -7.957895,2.13211 l -5.523053,3.18577 c -4.92287,2.83965 -7.957894,8.09055 -7.957894,13.76986 v 7.24883 c 0,2.24013 0.633031,4.25763 1.462139,5.9555 -0.0983,0.12141 -0.200512,0.23244 -0.294332,0.36407 -1.351994,1.88536 -0.92443,6.85465 -3.352563,11.7326 -0.389469,0.78267 -3.406947,3.81624 -3.673131,4.65747 -2.17057,6.85914 -4.649991,11.37425 -1.633031,14.39119 4.114005,4.11406 2.831283,-12.37926 8.309293,-12.37926 0.143965,0 0.401038,6.1076 0.847757,7.12181 0.944661,2.14446 2.97262,4.97467 5.126332,5.66584 0.950838,0.30499 1.926408,0.19391 2.84389,-0.57789 0.927378,-0.78011 -3.884563,-3.72361 -4.408989,-7.46157 -0.181226,-1.29095 2.397369,-8.26129 5.087199,-6.95294 4.581674,2.2285 13.445282,1.31606 17.127286,0.17015 0.673971,-0.20996 -2.166067,14.34233 3.323061,14.5175 1.926607,0.0641 3.647679,-0.96233 4.187914,-2.04286 0.607967,-1.21545 -3.520757,-1.51969 -3.950447,-2.8089 -0.615685,-1.84691 1.693509,-10.62113 1.923391,-10.39126 3.842667,3.84271 11.394702,16.57796 18.107547,13.89279 3.341247,-1.33648 -11.891168,-6.64491 -11.891168,-18.08491 0,-0.82987 9.087765,1.49238 13.375925,-2.79581 2.03053,-2.03047 -1.03072,-9.13662 -2.933787,-9.72961 0.716703,-2.28346 0.756673,-3.70818 -0.04503,-4.47896 -0.486503,-0.46681 -2.508284,3.24701 -3.272942,3.94698 -0.05779,0.0514 -1.693377,-5.59855 -3.222094,-4.06987 -0.949934,0.94992 -0.205653,3.76654 -1.525967,5.08715 -3.596127,3.59613 -22.449946,-0.65204 -26.623462,-1.69548 -3.339585,-0.63697 -6.643943,-1.24626 -9.402806,-0.59459 -0.51157,-1.09832 -0.896535,-2.27909 -0.896535,-3.43901 v -7.24882 c 0,-4.04779 2.152504,-7.7708 5.661107,-9.79471 l 5.523066,-3.18512 c 3.508604,-2.02386 7.825819,-2.02386 11.334421,0 l 26.221919,15.12429 c 2.54332,1.46708 4.10418,4.17658 4.10418,7.11082 v 32.05521 c 0,2.93417 -1.56086,5.64374 -4.10418,7.11083 l -27.790418,16.0276 c -2.543314,1.4671 -5.665797,1.4671 -8.209111,0 L 38.34039,176.73157 c -2.543313,-1.46709 -4.104242,-4.17666 -4.104242,-7.11083 v -32.05521 c 0,-2.93474 1.561061,-5.64252 4.104242,-7.11082 l 0.02564,-0.0133 c 0.827953,0.50213 1.796523,0.79281 2.827432,0.79281 3.011501,0 5.487402,-2.4759 5.487402,-5.48739 0,-3.01149 -2.475901,-5.48945 -5.487402,-5.48945 -3.011433,0 -5.490083,2.47796 -5.490083,5.48945 0,0.31013 0.02577,0.61385 0.07837,0.91025 -3.795046,2.31911 -6.138804,6.45024 -6.138804,10.90954 v 32.05521 c 0,4.56577 2.444207,8.80375 6.401721,11.08664 l 27.790433,16.02767 c 3.957515,2.28289 8.845862,2.28289 12.803443,0 l 27.790368,-16.02767 c 3.95756,-2.28289 6.40172,-6.52087 6.40172,-11.08664 v -32.05521 c 0,-4.56577 -2.44416,-8.8031 -6.40172,-11.08599 L 78.195351,111.35568 c -2.46137,-1.41984 -5.208928,-2.13213 -7.958533,-2.13213 z m -29.043201,14.29441 c 1.249103,0 2.226161,0.9798 2.226161,2.22883 0,1.2491 -0.977058,2.22613 -2.226161,2.22613 -1.249022,0 -2.228843,-0.97703 -2.228843,-2.22613 0,-1.24903 0.979821,-2.22883 2.228843,-2.22883 z" /><path
       style="font-size:58.7665px;font-family:'Geologica Roman';-inkscape-font-specification:'Geologica Roman, ';text-align:center;letter-spacing:0px;text-anchor:middle;stroke-width:2.20196;paint-order:fill markers stroke"
       d="M 124.28528,167.93565 V 126.7991 h 6.58185 v 16.33709 h 19.92184 V 126.7991 h 6.58185 v 41.13655 h -6.58185 v -18.74651 h -19.92184 v 18.74651 z m 56.23946,0.8815 q -4.70132,0 -8.2567,-1.90991 -3.55537,-1.93929 -5.55343,-5.40652 -1.96868,-3.46722 -1.96868,-8.05101 0,-3.34969 1.14595,-6.17048 1.14595,-2.85018 3.23216,-4.93639 2.08621,-2.08621 4.87762,-3.23215 2.82079,-1.14595 6.1411,-1.14595 3.61414,0 6.43493,1.29286 2.82079,1.26348 4.67193,3.55538 1.88053,2.29189 2.6445,5.37713 0.79334,3.05586 0.26445,6.64061 H 170.9458 q -0.0588,2.61511 1.14595,4.58379 1.20471,1.9393 3.43784,3.02648 2.26251,1.08718 5.31836,1.08718 2.4682,0 4.76009,-0.73458 2.32128,-0.76397 4.2018,-2.23313 l 2.49758,4.64255 q -1.4104,1.14595 -3.40846,1.96868 -1.99806,0.79335 -4.17242,1.20471 -2.17436,0.44075 -4.2018,0.44075 z m -9.19696,-18.74651 h 16.484 q -0.0881,-3.29093 -2.11559,-5.17145 -1.99806,-1.88053 -5.70035,-1.88053 -3.58476,0 -5.9648,1.88053 -2.35066,1.88052 -2.70326,5.17145 z m 25.53383,17.8944 10.51921,-14.63286 -9.90216,-14.48594 h 8.13916 l 6.19987,9.84339 5.99418,-9.84339 h 7.93348 l -9.60833,14.30964 10.43106,14.77977 H 218.282 l -6.69938,-10.22537 -6.78753,10.16661 z m 48.04146,0.85211 q -4.58378,0 -8.16854,-1.99806 -3.58476,-2.02744 -5.64158,-5.49467 -2.02745,-3.4966 -2.02745,-7.93347 0,-3.3497 1.20471,-6.1411 1.20472,-2.8208 3.40846,-4.90701 2.20375,-2.08621 5.17145,-3.23215 2.99709,-1.14595 6.4937,-1.14595 2.93833,0 5.4359,0.79335 2.52696,0.76396 4.64256,2.38004 l -3.11463,4.93639 q -1.35163,-1.20472 -3.11462,-1.79238 -1.73361,-0.58767 -3.70229,-0.58767 -3.05586,0 -5.2596,1.14595 -2.20375,1.14595 -3.43784,3.32031 -1.20472,2.14497 -1.20472,5.20083 0,4.55441 2.6445,7.14013 2.67387,2.58573 7.25766,2.58573 2.17436,0 4.11365,-0.79335 1.9393,-0.82273 3.23216,-2.14498 l 3.08524,4.90701 q -2.32128,1.76299 -5.17145,2.76202 -2.85018,0.99903 -5.84727,0.99903 z m 25.03448,0 q -3.02647,0 -5.31836,-1.11656 -2.2919,-1.14595 -3.58476,-3.20278 -1.26348,-2.08621 -1.26348,-4.907 0,-2.38004 1.20471,-4.28995 1.20472,-1.9393 3.73168,-3.20278 2.55634,-1.26348 6.55246,-1.67484 3.99612,-0.44075 9.60832,0.11753 l 0.11754,4.46625 q -3.99613,-0.55828 -6.87568,-0.47013 -2.87956,0.0882 -4.73071,0.73458 -1.82176,0.61705 -2.70326,1.67485 -0.85211,1.02841 -0.85211,2.38004 0,2.1156 1.49854,3.26154 1.52793,1.14595 4.17243,1.14595 2.26251,0 4.05488,-0.82273 1.79238,-0.82273 2.8208,-2.32128 1.05779,-1.49854 1.05779,-3.52599 v -7.72779 q 0,-1.9393 -0.82273,-3.34969 -0.82273,-1.43978 -2.49757,-2.23313 -1.67485,-0.79335 -4.17243,-0.79335 -2.29189,0 -4.52502,0.7052 -2.23312,0.67581 -4.26057,2.14498 l -1.82176,-4.76009 q 2.73264,-1.85114 5.70035,-2.61511 2.96771,-0.76396 5.70035,-0.76396 4.05489,0 6.93445,1.29286 2.90894,1.26348 4.46625,3.84921 1.55732,2.55634 1.55732,6.46431 v 18.65836 h -5.81789 v -3.43784 q -1.46916,2.08621 -4.08427,3.20278 -2.61511,1.11656 -5.84727,1.11656 z m 35.99436,0 q -4.26057,0 -6.81691,-2.46819 -2.55635,-2.46819 -2.55635,-7.5515 v -28.44298 h 6.46432 v 8.49176 h 8.08039 v 5.34775 h -8.08039 v 13.19308 q 0,3.05586 1.14595,4.31933 1.17533,1.2341 3.29092,1.2341 1.02841,0 1.93929,-0.23506 0.91088,-0.23507 1.64547,-0.61705 l 1.14594,5.23022 q -1.26348,0.64643 -2.90894,1.05779 -1.61608,0.44075 -3.34969,0.44075 z m -15.74942,-24.62316 v -5.34775 h 7.22828 v 5.34775 z"
       id="text1"
       aria-label="Hexcat" /><path
       style="font-size:14.9353px;font-family:'Geologica Roman';-inkscape-font-specification:'Geologica Roman, ';text-align:center;letter-spacing:0px;text-anchor:middle;stroke-width:2.33176;paint-order:fill markers stroke"
       d="m 124.88227,185.84026 v -10.45471 h 3.95039 q 1.09028,0 1.88185,0.38085 0.79904,0.37338 1.23216,1.06787 0.44059,0.69449 0.44059,1.65035 0,0.77664 -0.33604,1.37405 -0.32858,0.59741 -0.92599,0.98573 -0.59741,0.38085 -1.38152,0.51527 l 3.15135,4.48059 h -2.02373 l -2.88998,-4.21923 h -1.42632 v 4.21923 z m 1.67276,-5.60821 h 2.00133 q 1.0156,0 1.57567,-0.43312 0.56754,-0.43313 0.56754,-1.23963 0,-0.82891 -0.5078,-1.29191 -0.50033,-0.46299 -1.51593,-0.46299 h -2.12081 z m 10.88782,5.83224 q -0.9932,0 -1.64288,-0.39579 -0.64222,-0.40325 -0.96333,-1.06041 -0.32111,-0.65715 -0.32111,-1.43379 v -4.72702 h 1.64288 v 4.42085 q 0,0.7617 0.44806,1.2247 0.45553,0.45552 1.25457,0.45552 0.52273,0 0.93345,-0.23149 0.41072,-0.23897 0.64969,-0.66463 0.24643,-0.42565 0.24643,-0.98573 v -4.21922 h 1.64289 v 7.39298 h -1.4786 v -0.87372 q -0.43312,0.52274 -1.03054,0.81397 -0.58994,0.28378 -1.38151,0.28378 z m 8.66994,-0.007 q -0.91852,0 -1.71756,-0.26137 -0.79904,-0.26137 -1.34418,-0.70196 l 0.61982,-1.20229 q 0.51526,0.40325 1.15748,0.63475 0.64969,0.2315 1.27697,0.2315 0.72436,0 1.12762,-0.2539 0.40325,-0.2539 0.40325,-0.70943 0,-0.43312 -0.35098,-0.63475 -0.34351,-0.20909 -1.31431,-0.43312 -1.39645,-0.29124 -2.0312,-0.82145 -0.62728,-0.53767 -0.62728,-1.48606 0,-0.66462 0.36591,-1.17242 0.37339,-0.51527 1.02307,-0.80651 0.64969,-0.29123 1.501,-0.29123 0.82891,0 1.56074,0.23896 0.73183,0.2315 1.2695,0.65715 l -0.58248,1.20976 q -0.2763,-0.24643 -0.64222,-0.42565 -0.36591,-0.17923 -0.77663,-0.27631 -0.40325,-0.10454 -0.80651,-0.10454 -0.62728,0 -1.02307,0.24643 -0.38831,0.23896 -0.38831,0.66462 0,0.44059 0.37338,0.64969 0.37338,0.20909 1.28443,0.41818 1.43379,0.31365 2.05361,0.83638 0.61981,0.52274 0.61981,1.44873 0,0.70942 -0.38085,1.23963 -0.38085,0.52273 -1.06787,0.81397 -0.67956,0.29124 -1.58314,0.29124 z m 7.99038,0.007 q -1.08281,0 -1.7325,-0.62729 -0.64968,-0.62728 -0.64968,-1.91918 v -7.22869 h 1.64288 v 2.15815 h 2.0536 v 1.35911 h -2.0536 v 3.35298 q 0,0.77664 0.29124,1.09774 0.2987,0.31365 0.83637,0.31365 0.26137,0 0.49287,-0.0598 0.2315,-0.0597 0.41819,-0.15682 l 0.29124,1.32925 q -0.32111,0.16428 -0.7393,0.26883 -0.41072,0.11202 -0.85131,0.11202 z m -4.00266,-6.2579 v -1.35911 h 1.83704 v 1.35911 z m 14.36025,6.2579 q -1.16495,0 -2.07601,-0.5078 -0.91105,-0.51527 -1.43379,-1.39646 -0.51526,-0.88865 -0.51526,-2.01626 0,-0.85131 0.30617,-1.56074 0.30617,-0.71689 0.86625,-1.2471 0.56007,-0.5302 1.3143,-0.82144 0.7617,-0.29124 1.65035,-0.29124 0.74677,0 1.38152,0.20163 0.64222,0.19416 1.17989,0.60488 l -0.79157,1.25456 q -0.34351,-0.30617 -0.79157,-0.45552 -0.44059,-0.14936 -0.94093,-0.14936 -0.77663,0 -1.33671,0.29124 -0.56007,0.29124 -0.87371,0.84385 -0.30617,0.54514 -0.30617,1.32177 0,1.15749 0.67208,1.81464 0.67956,0.65715 1.84451,0.65715 0.55261,0 1.04547,-0.20162 0.49287,-0.2091 0.82145,-0.54514 l 0.7841,1.2471 q -0.58995,0.44806 -1.31431,0.70196 -0.72436,0.2539 -1.48606,0.2539 z m 7.52738,0 q -1.15749,0 -2.06854,-0.53021 -0.90359,-0.53767 -1.41886,-1.42632 -0.51527,-0.89612 -0.51527,-1.96399 0,-0.79157 0.29124,-1.49353 0.29871,-0.70943 0.83638,-1.25457 0.54514,-0.54513 1.27697,-0.85878 0.73183,-0.31364 1.60554,-0.31364 1.15749,0 2.06107,0.53767 0.91106,0.53021 1.42633,1.42632 0.51526,0.88866 0.51526,1.95653 0,0.7841 -0.2987,1.49353 -0.29124,0.70943 -0.82891,1.25456 -0.53767,0.54514 -1.2695,0.85878 -0.73183,0.31365 -1.61301,0.31365 z m 0,-1.4562 q 0.68702,0 1.21722,-0.2987 0.53767,-0.30618 0.84385,-0.85878 0.30617,-0.55261 0.30617,-1.30684 0,-0.75423 -0.30617,-1.30684 -0.30618,-0.56007 -0.84385,-0.85878 -0.5302,-0.29871 -1.21722,-0.29871 -0.68703,0 -1.2247,0.29871 -0.5302,0.29871 -0.83638,0.85878 -0.2987,0.55261 -0.2987,1.30684 0,0.75423 0.30617,1.30684 0.30618,0.5526 0.83638,0.85878 0.53767,0.2987 1.21723,0.2987 z m 5.66047,1.23217 v -7.39298 h 1.64288 v 1.0156 q 0.29871,-0.43312 0.68703,-0.70196 0.38831,-0.2763 0.82144,-0.40325 0.43312,-0.13442 0.88118,-0.13442 0.90359,0 1.501,0.39579 0.60488,0.39578 0.85131,1.0156 0.55261,-0.80651 1.28444,-1.10521 0.73183,-0.30618 1.47112,-0.30618 1.02307,0 1.63542,0.40326 0.61235,0.40325 0.88118,1.038 0.2763,0.63475 0.2763,1.30684 v 4.86891 h -1.64288 v -4.39098 q 0,-0.76917 -0.42565,-1.23963 -0.41819,-0.47793 -1.2247,-0.47793 -0.5302,0 -0.94839,0.2315 -0.41819,0.23149 -0.66462,0.64221 -0.23897,0.40326 -0.23897,0.93346 v 4.30137 h -1.64288 v -4.39098 q 0,-0.76917 -0.41819,-1.23963 -0.41819,-0.47793 -1.23216,-0.47793 -0.52273,0 -0.94839,0.2315 -0.41819,0.23149 -0.66462,0.64221 -0.23897,0.40326 -0.23897,0.93346 v 4.30137 z m 14.14371,3.13641 v -10.52939 h 1.4786 v 1.03801 q 0.44059,-0.56008 1.12761,-0.91106 0.68703,-0.35098 1.69516,-0.35098 1.08281,0 1.91918,0.51527 0.84385,0.5078 1.31431,1.39645 0.47046,0.88118 0.47046,2.0088 0,0.81397 -0.26883,1.53087 -0.26884,0.70942 -0.76917,1.24709 -0.49287,0.53768 -1.17989,0.84385 -0.67956,0.29871 -1.50847,0.29871 -0.86624,0 -1.5234,-0.31365 -0.65715,-0.31364 -1.12014,-0.84384 v 4.06987 z m 4.00266,-4.36858 q 0.68703,0 1.21723,-0.2987 0.53767,-0.30618 0.83638,-0.85878 0.30617,-0.55261 0.30617,-1.30684 0,-0.75423 -0.30617,-1.30684 -0.30618,-0.56007 -0.84385,-0.85878 -0.5302,-0.29871 -1.20976,-0.29871 -0.68702,0 -1.22469,0.29871 -0.53021,0.29871 -0.83638,0.85878 -0.30617,0.55261 -0.30617,1.30684 0,0.75423 0.30617,1.30684 0.30617,0.5526 0.83638,0.85878 0.53767,0.2987 1.22469,0.2987 z m 5.653,1.23217 v -7.39298 h 1.64289 v 7.39298 z m 0.82145,-8.71475 q -0.4406,0 -0.7617,-0.28377 -0.32111,-0.28377 -0.32111,-0.74677 0,-0.45552 0.32111,-0.73929 0.3211,-0.29124 0.7617,-0.29124 0.44059,0 0.7617,0.29124 0.3211,0.28377 0.3211,0.73929 0,0.463 -0.3211,0.74677 -0.32111,0.28377 -0.7617,0.28377 z m 3.10652,8.71475 v -10.75342 h 1.64288 v 10.75342 z m 7.30334,0.22403 q -1.19483,0 -2.09841,-0.4854 -0.90359,-0.49287 -1.41139,-1.37405 -0.50033,-0.88118 -0.50033,-2.04614 0,-0.85131 0.29124,-1.5682 0.29124,-0.72436 0.82144,-1.25457 0.5302,-0.5302 1.23963,-0.82144 0.71689,-0.29124 1.56074,-0.29124 0.91852,0 1.63541,0.32858 0.7169,0.32111 1.18736,0.90359 0.47793,0.58247 0.67209,1.36657 0.20163,0.77664 0.0672,1.68769 h -5.89945 q -0.0149,0.66462 0.29124,1.16496 0.30618,0.49286 0.87372,0.76917 0.57501,0.2763 1.35164,0.2763 0.62728,0 1.20976,-0.18669 0.58995,-0.19416 1.06788,-0.56754 l 0.63475,1.17988 q -0.35845,0.29124 -0.86625,0.50034 -0.5078,0.20162 -1.06041,0.30617 -0.5526,0.11202 -1.06787,0.11202 z m -2.33738,-4.76437 h 4.18936 q -0.0224,-0.83637 -0.53768,-1.3143 -0.5078,-0.47793 -1.44872,-0.47793 -0.91105,0 -1.51593,0.47793 -0.59741,0.47793 -0.68703,1.3143 z m 7.51244,4.54034 v -7.39298 h 1.64288 v 1.02307 q 0.41819,-0.69449 1.0156,-0.97079 0.59741,-0.28377 1.28444,-0.28377 0.22403,0 0.42565,0.0224 0.20163,0.0224 0.38832,0.0672 l -0.21656,1.69515 q -0.22403,-0.0672 -0.45553,-0.10454 -0.23149,-0.0373 -0.46299,-0.0373 -0.85878,0 -1.41885,0.5302 -0.56008,0.52274 -0.56008,1.42632 v 4.02507 z m 13.16544,0.22403 q -1.19483,0 -2.09841,-0.4854 -0.90359,-0.49287 -1.41139,-1.37405 -0.50033,-0.88118 -0.50033,-2.04614 0,-0.85131 0.29124,-1.5682 0.29124,-0.72436 0.82144,-1.25457 0.5302,-0.5302 1.23963,-0.82144 0.71689,-0.29124 1.56074,-0.29124 0.91852,0 1.63541,0.32858 0.7169,0.32111 1.18736,0.90359 0.47793,0.58247 0.67209,1.36657 0.20163,0.77664 0.0672,1.68769 h -5.89945 q -0.0149,0.66462 0.29124,1.16496 0.30618,0.49286 0.87372,0.76917 0.57501,0.2763 1.35164,0.2763 0.62728,0 1.20976,-0.18669 0.58995,-0.19416 1.06788,-0.56754 l 0.63475,1.17988 q -0.35845,0.29124 -0.86625,0.50034 -0.5078,0.20162 -1.06041,0.30617 -0.5526,0.11202 -1.06787,0.11202 z m -2.33738,-4.76437 h 4.18936 q -0.0224,-0.83637 -0.53768,-1.3143 -0.5078,-0.47793 -1.44872,-0.47793 -0.91105,0 -1.51593,0.47793 -0.59741,0.47793 -0.68703,1.3143 z m 7.51244,4.54034 v -7.39298 h 1.64288 v 0.94093 q 0.463,-0.61982 1.07534,-0.88865 0.61235,-0.27631 1.2695,-0.27631 1.0156,0 1.68022,0.40326 0.66463,0.40325 0.98573,1.038 0.32858,0.63475 0.32858,1.30684 v 4.86891 h -1.64288 v -4.36111 q 0,-0.79157 -0.47793,-1.2695 -0.47046,-0.47793 -1.31431,-0.47793 -0.5526,0 -0.98573,0.24643 -0.42565,0.24643 -0.67209,0.68702 -0.24643,0.43313 -0.24643,1.0156 v 4.15949 z m 12.10505,3.36044 q -0.82891,0 -1.49353,-0.14935 -0.66462,-0.14189 -1.13509,-0.41819 -0.46299,-0.27631 -0.70942,-0.66462 -0.24644,-0.38832 -0.24644,-0.86625 0,-0.38085 0.20163,-0.7169 0.2091,-0.33604 0.61235,-0.575 0.41072,-0.24644 1.00066,-0.36592 -0.44059,-0.22403 -0.65715,-0.5078 -0.20909,-0.28377 -0.20909,-0.64969 0,-0.31364 0.17922,-0.58994 0.18669,-0.28377 0.52274,-0.50033 0.34351,-0.22403 0.8065,-0.36592 0.463,-0.14188 1.02307,-0.16429 l 0.35845,0.7169 q -0.463,-0.007 -0.79157,0.0747 -0.32111,0.0747 -0.50034,0.21656 -0.17175,0.13441 -0.17175,0.32857 0,0.2539 0.29124,0.37339 0.29123,0.11201 0.82144,0.15682 l 1.2695,0.0971 q 0.93345,0.0747 1.59061,0.30617 0.66462,0.2315 1.0156,0.64969 0.35844,0.41818 0.35844,1.0604 0,0.54514 -0.2987,1.00813 -0.29124,0.47047 -0.84385,0.81398 -0.54513,0.34351 -1.30683,0.53767 -0.7617,0.19416 -1.68769,0.19416 z m 0.16429,-1.13508 q 1.11267,0 1.74743,-0.33605 0.64221,-0.32858 0.64221,-0.85878 0,-0.40325 -0.42565,-0.62728 -0.42566,-0.22403 -1.29937,-0.28377 l -1.35912,-0.10455 q -0.47793,0.0373 -0.82891,0.17922 -0.34351,0.14189 -0.52273,0.36592 -0.17922,0.22403 -0.17922,0.5078 0,0.34351 0.26883,0.60488 0.26884,0.26137 0.76917,0.40325 0.50033,0.14936 1.18736,0.14936 z m -0.0523,-4.57021 q -0.92599,0 -1.66528,-0.35098 -0.73183,-0.35098 -1.15749,-0.94839 -0.42566,-0.59741 -0.42566,-1.33671 0,-0.73929 0.42566,-1.33671 0.43312,-0.59741 1.16495,-0.94839 0.7393,-0.35098 1.65782,-0.35098 0.91852,0 1.65035,0.35098 0.73183,0.35098 1.15749,0.94839 0.43312,0.59742 0.43312,1.33671 0,0.73183 -0.42565,1.32924 -0.42566,0.59742 -1.15749,0.95586 -0.73183,0.35098 -1.65782,0.35098 z m 0,-1.23216 q 0.5078,0 0.90359,-0.17175 0.39578,-0.17923 0.61981,-0.49287 0.22403,-0.32111 0.22403,-0.7393 0,-0.62728 -0.49286,-1.0156 -0.4854,-0.39578 -1.25457,-0.39578 -0.51527,0 -0.91105,0.17922 -0.38832,0.17922 -0.61235,0.50033 -0.22403,0.31364 -0.22403,0.73183 0,0.61982 0.4854,1.0156 0.49286,0.38832 1.26203,0.38832 z m 1.15002,-2.5166 -0.61235,-1.14255 3.96532,-0.15682 -0.0149,1.35911 z m 4.76435,6.09361 v -7.39298 h 1.64288 v 7.39298 z m 0.82144,-8.71475 q -0.44059,0 -0.7617,-0.28377 -0.32111,-0.28377 -0.32111,-0.74677 0,-0.45552 0.32111,-0.73929 0.32111,-0.29124 0.7617,-0.29124 0.44059,0 0.7617,0.29124 0.32111,0.28377 0.32111,0.73929 0,0.463 -0.32111,0.74677 -0.32111,0.28377 -0.7617,0.28377 z m 3.10652,8.71475 v -7.39298 h 1.64289 v 0.94093 q 0.46299,-0.61982 1.07534,-0.88865 0.61234,-0.27631 1.2695,-0.27631 1.0156,0 1.68022,0.40326 0.66462,0.40325 0.98573,1.038 0.32858,0.63475 0.32858,1.30684 v 4.86891 h -1.64289 v -4.36111 q 0,-0.79157 -0.47793,-1.2695 -0.47046,-0.47793 -1.3143,-0.47793 -0.55261,0 -0.98573,0.24643 -0.42566,0.24643 -0.67209,0.68702 -0.24643,0.43313 -0.24643,1.0156 v 4.15949 z m 12.56805,0.22403 q -1.19482,0 -2.09841,-0.4854 -0.90358,-0.49287 -1.41138,-1.37405 -0.50033,-0.88118 -0.50033,-2.04614 0,-0.85131 0.29123,-1.5682 0.29124,-0.72436 0.82145,-1.25457 0.5302,-0.5302 1.23963,-0.82144 0.71689,-0.29124 1.56073,-0.29124 0.91853,0 1.63542,0.32858 0.71689,0.32111 1.18736,0.90359 0.47793,0.58247 0.67208,1.36657 0.20163,0.77664 0.0672,1.68769 h -5.89944 q -0.0149,0.66462 0.29124,1.16496 0.30617,0.49286 0.87371,0.76917 0.57501,0.2763 1.35165,0.2763 0.62728,0 1.20976,-0.18669 0.58994,-0.19416 1.06787,-0.56754 l 0.63475,1.17988 q -0.35845,0.29124 -0.86625,0.50034 -0.5078,0.20162 -1.0604,0.30617 -0.55261,0.11202 -1.06788,0.11202 z m -2.33737,-4.76437 h 4.18935 q -0.0224,-0.83637 -0.53767,-1.3143 -0.5078,-0.47793 -1.44872,-0.47793 -0.91106,0 -1.51594,0.47793 -0.59741,0.47793 -0.68702,1.3143 z m 10.96247,4.76437 q -1.19483,0 -2.09841,-0.4854 -0.90359,-0.49287 -1.41139,-1.37405 -0.50033,-0.88118 -0.50033,-2.04614 0,-0.85131 0.29124,-1.5682 0.29123,-0.72436 0.82144,-1.25457 0.5302,-0.5302 1.23963,-0.82144 0.71689,-0.29124 1.56074,-0.29124 0.91852,0 1.63541,0.32858 0.7169,0.32111 1.18736,0.90359 0.47793,0.58247 0.67209,1.36657 0.20162,0.77664 0.0672,1.68769 h -5.89944 q -0.0149,0.66462 0.29124,1.16496 0.30617,0.49286 0.87371,0.76917 0.57501,0.2763 1.35165,0.2763 0.62728,0 1.20976,-0.18669 0.58994,-0.19416 1.06787,-0.56754 l 0.63475,1.17988 q -0.35844,0.29124 -0.86624,0.50034 -0.5078,0.20162 -1.06041,0.30617 -0.55261,0.11202 -1.06787,0.11202 z m -2.33738,-4.76437 h 4.18935 q -0.0224,-0.83637 -0.53767,-1.3143 -0.5078,-0.47793 -1.44872,-0.47793 -0.91106,0 -1.51594,0.47793 -0.59741,0.47793 -0.68702,1.3143 z m 7.51244,4.54034 v -7.39298 h 1.64289 v 1.02307 q 0.41818,-0.69449 1.0156,-0.97079 0.59741,-0.28377 1.28443,-0.28377 0.22403,0 0.42566,0.0224 0.20162,0.0224 0.38832,0.0672 l -0.21657,1.69515 q -0.22403,-0.0672 -0.45552,-0.10454 -0.2315,-0.0373 -0.463,-0.0373 -0.85878,0 -1.41885,0.5302 -0.56007,0.52274 -0.56007,1.42632 v 4.02507 z m 6.13094,0 v -7.39298 h 1.64288 v 7.39298 z m 0.82144,-8.71475 q -0.44059,0 -0.7617,-0.28377 -0.32111,-0.28377 -0.32111,-0.74677 0,-0.45552 0.32111,-0.73929 0.32111,-0.29124 0.7617,-0.29124 0.44059,0 0.7617,0.29124 0.32111,0.28377 0.32111,0.73929 0,0.463 -0.32111,0.74677 -0.32111,0.28377 -0.7617,0.28377 z m 3.10652,8.71475 v -7.39298 h 1.64288 v 0.94093 q 0.463,-0.61982 1.07535,-0.88865 0.61234,-0.27631 1.2695,-0.27631 1.0156,0 1.68022,0.40326 0.66462,0.40325 0.98573,1.038 0.32857,0.63475 0.32857,1.30684 v 4.86891 h -1.64288 v -4.36111 q 0,-0.79157 -0.47793,-1.2695 -0.47046,-0.47793 -1.3143,-0.47793 -0.55261,0 -0.98573,0.24643 -0.42566,0.24643 -0.67209,0.68702 -0.24644,0.43313 -0.24644,1.0156 v 4.15949 z m 12.10504,3.36044 q -0.82891,0 -1.49353,-0.14935 -0.66462,-0.14189 -1.13508,-0.41819 -0.46299,-0.27631 -0.70943,-0.66462 -0.24643,-0.38832 -0.24643,-0.86625 0,-0.38085 0.20163,-0.7169 0.20909,-0.33604 0.61234,-0.575 0.41073,-0.24644 1.00067,-0.36592 -0.44059,-0.22403 -0.65715,-0.5078 -0.2091,-0.28377 -0.2091,-0.64969 0,-0.31364 0.17923,-0.58994 0.18669,-0.28377 0.52273,-0.50033 0.34351,-0.22403 0.80651,-0.36592 0.46299,-0.14188 1.02307,-0.16429 l 0.35844,0.7169 q -0.46299,-0.007 -0.79157,0.0747 -0.32111,0.0747 -0.50033,0.21656 -0.17176,0.13441 -0.17176,0.32857 0,0.2539 0.29124,0.37339 0.29124,0.11201 0.82144,0.15682 l 1.2695,0.0971 q 0.93346,0.0747 1.59061,0.30617 0.66462,0.2315 1.0156,0.64969 0.35845,0.41818 0.35845,1.0604 0,0.54514 -0.29871,1.00813 -0.29123,0.47047 -0.84384,0.81398 -0.54514,0.34351 -1.30684,0.53767 -0.7617,0.19416 -1.68769,0.19416 z m 0.16429,-1.13508 q 1.11268,0 1.74743,-0.33605 0.64222,-0.32858 0.64222,-0.85878 0,-0.40325 -0.42566,-0.62728 -0.42565,-0.22403 -1.29937,-0.28377 l -1.35911,-0.10455 q -0.47793,0.0373 -0.82891,0.17922 -0.34351,0.14189 -0.52273,0.36592 -0.17923,0.22403 -0.17923,0.5078 0,0.34351 0.26884,0.60488 0.26883,0.26137 0.76916,0.40325 0.50034,0.14936 1.18736,0.14936 z m -0.0523,-4.57021 q -0.92599,0 -1.66529,-0.35098 -0.73183,-0.35098 -1.15748,-0.94839 -0.42566,-0.59741 -0.42566,-1.33671 0,-0.73929 0.42566,-1.33671 0.43312,-0.59741 1.16495,-0.94839 0.7393,-0.35098 1.65782,-0.35098 0.91852,0 1.65035,0.35098 0.73183,0.35098 1.15748,0.94839 0.43313,0.59742 0.43313,1.33671 0,0.73183 -0.42566,1.32924 -0.42565,0.59742 -1.15748,0.95586 -0.73183,0.35098 -1.65782,0.35098 z m 0,-1.23216 q 0.5078,0 0.90358,-0.17175 0.39579,-0.17923 0.61982,-0.49287 0.22403,-0.32111 0.22403,-0.7393 0,-0.62728 -0.49287,-1.0156 -0.48539,-0.39578 -1.25456,-0.39578 -0.51527,0 -0.91106,0.17922 -0.38831,0.17922 -0.61234,0.50033 -0.22403,0.31364 -0.22403,0.73183 0,0.61982 0.48539,1.0156 0.49287,0.38832 1.26204,0.38832 z m 1.15002,-2.5166 -0.61235,-1.14255 3.96532,-0.15682 -0.0149,1.35911 z"
       id="text2"
       aria-label="Rust compiler engineering" /></g></svg>
