<svg width="3048" height="889" viewBox="0 0 3048 889" fill="none" xmlns="http://www.w3.org/2000/svg">
<path d="M438.233 78.496C422.954 81.0523 414.201 95.3528 416.59 108.894C419.167 123.513 432.717 133.001 447.472 130.332C460.948 127.894 470.716 114.734 468.586 100.645C466.473 86.665 453.621 75.922 438.233 78.496ZM729.895 470.967C729.888 468.26 732.074 465.552 734.695 465.547L767.941 465.478C769.307 446.49 769.122 428.058 767.241 409.103L709.046 383.275C696.313 378.311 689.253 363.923 695.008 350.902L726.215 280.295C679.291 197.541 597.664 139.194 503.787 121.632L458.146 165.17C448.231 174.223 433.682 173.898 424.309 164.278L383.367 121.558C313.836 135.144 250.776 169.808 202.049 224.054L548.352 224.751C583.851 224.822 616.364 243.457 640.472 267.121C659.228 287.993 669.572 312.771 666.942 340.593C663.393 378.133 630.837 406.045 601.071 425.506L620.324 441.829C639.837 458.373 648.42 486.247 652.885 510.716C656.525 530.65 682.346 534.7 699.653 530.907C731.533 523.921 729.946 494.728 729.895 470.967ZM122.765 317.842C107.368 320.778 98.6301 335.524 101.994 349.804C105.194 363.389 118.623 372.483 133.107 369.458C146.673 366.626 156.404 353.039 153.393 338.408C150.68 325.228 137.788 314.978 122.765 317.842ZM752.469 317.864C737.048 320.879 728.421 335.623 731.809 349.867C735.043 363.464 748.498 372.453 762.861 369.467C776.549 366.621 786.186 352.931 783.188 338.401C780.451 325.14 767.444 314.935 752.469 317.864ZM131.42 530.463L224.139 530.367L224.104 322.742L178.39 322.845L190.6 350.892C194.25 361.827 190.017 375.31 178.742 380.371L120.756 406.406C116.367 448.199 119.641 489.881 131.42 530.463ZM519.65 360.03C521.652 336.935 495.248 325.132 479.427 325.119L370.306 325.03L370.263 386.168L474.497 386.102C491.048 386.091 517.99 379.191 519.65 360.03ZM591.722 674.222C594.558 661.221 608.401 654.893 620.006 657.371L675.72 669.271C686.416 658.031 695.653 647.942 705.241 634.591L569.259 634.417C559.332 634.117 553.029 629.888 549.258 627.024C532.344 614.177 521.976 595.471 517.619 574.716L507.386 525.975C501.243 496.715 487.155 476.631 455.24 474.261L370.396 474.249L370.208 533.733L452.9 533.942L452.895 634.441L182.789 634.536C191.02 646.496 199.98 656.442 210.258 667.731L264.944 656.097C278.321 653.251 290.859 661.546 293.741 674.93L306.995 736.493C393.079 776.414 491.813 776.74 577.867 737.721L591.722 674.222ZM242.93 690.01C227.479 692.414 218.551 706.669 221.018 720.72C223.459 734.62 236.756 744.003 250.271 742.153C265.086 740.127 274.955 726.876 272.999 712.388C271.134 698.573 258.258 687.625 242.93 690.01ZM633.541 691.266C618.319 693.889 609.825 708.312 612.085 721.431C614.663 736.404 628.382 745.692 642.874 743.088C656.679 740.608 666.315 727.28 664.084 713.186C661.87 699.205 648.863 688.624 633.541 691.266ZM455.998 8.14097L477.801 43.2144L488.769 44.3397L518.452 12.483C521.236 9.49435 526.089 7.88161 530.144 8.4518C533.118 8.87032 538.059 11.7236 539.415 15.3188L555.499 57.9925L565.578 60.8809L602.787 34.2121C605.788 32.0618 611.704 32.6507 614.744 34.1795C617.653 35.6456 620.842 39.6619 621.455 43.4413L628.601 87.4582L637.676 92.2238L678.474 73.615C682.549 71.7567 688.156 72.8444 691.374 75.402C694.761 78.0949 696.369 82.7879 696.185 87.6086L694.559 130.25L702.69 136.795L746.351 126.494C749.955 125.643 755.033 127.47 757.45 129.636C759.581 131.544 762.294 136.864 761.503 140.259L751.053 185.083L757.563 193.256L801.457 191.651C805.625 191.498 810.144 193.725 812.365 196.526C814.539 199.269 816.075 204.983 814.502 208.453L795.539 250.252L800.296 259.315L844.279 266.467C848.034 267.079 852.079 270.299 853.498 273.17C855.322 276.855 855.465 282.467 852.949 285.973L826.809 322.395L829.636 332.522L870.673 347.854C874.337 349.224 877.807 352.896 878.71 355.802C879.989 359.912 878.995 365.987 875.837 368.941L843.374 399.3L844.477 410.281L881.78 433.373C885.334 435.572 887.759 440.374 887.759 444.2C887.76 448.023 885.342 452.829 881.789 455.028L844.485 478.127L843.372 489.134L875.176 518.826C878.563 521.989 879.961 526.867 878.967 531.749C878.322 534.917 874.708 539.038 870.637 540.56L829.702 555.868L826.792 566.027L852.428 601.652C855.016 605.247 855.529 610.401 853.897 614.418C852.333 618.271 847.927 621.396 843.227 622.154L800.301 629.077L795.523 638.166L814.125 679.022C815.777 682.649 815.024 687.949 812.914 691.14C810.726 694.451 806.079 696.93 801.444 696.759L757.562 695.144L751.021 703.331L761.287 746.965C762.141 750.592 760.381 755.646 758.12 758.099C755.65 760.78 750.428 762.869 746.338 761.905L702.668 751.613L694.572 758.148L696.201 802.096C696.373 806.698 693.851 811.412 690.631 813.561C686.903 816.048 681.689 816.302 677.544 814.406L637.682 796.173L628.601 800.956L621.455 844.962C620.844 848.721 617.643 852.776 614.773 854.207C611.151 856.015 605.431 856.164 602.038 853.725L565.531 827.457L555.455 830.36L540.156 871.375C538.661 875.382 534.556 879.068 531.236 879.751C526.796 880.663 521.56 879.276 518.429 875.915L488.74 844.049L477.796 845.199L455.78 880.539L453.571 883.662C448.799 890.401 438.801 890.388 434.047 883.635L431.867 880.539L410.013 845.209L399.052 844.056L369.353 875.899C366.45 879.011 361.996 880.459 357.564 879.959C354.332 879.595 349.502 876.252 348.001 872.246L332.326 830.403L322.205 827.484L286.551 853.175C282.97 855.756 277.823 856.208 273.833 854.599C269.957 853.037 266.884 848.635 266.123 843.909L259.205 800.958L250.126 796.182L209.318 814.798C205.696 816.449 200.388 815.699 197.192 813.581C193.921 811.413 191.422 806.703 191.591 802.095L193.204 758.187L185.154 751.605L141.458 761.913C137.831 762.768 132.789 761.019 130.303 758.731C127.652 756.29 125.555 751.017 126.512 746.942L136.797 703.199L130.214 695.135L86.3615 696.764C81.712 696.937 77.0687 694.47 74.8954 691.173C72.4342 687.437 72.1688 682.231 74.0666 678.073L92.278 638.175L87.4945 629.094L43.5291 621.951C39.7609 621.338 35.6872 618.116 34.2963 615.264C32.4848 611.551 32.3534 605.911 34.8234 602.47L61.0294 565.958L58.1199 555.877L17.1428 540.557C13.123 539.054 9.46241 534.918 8.80391 531.742C7.79488 526.878 9.25461 521.966 12.6222 518.822L44.453 489.097L43.2962 478.13L8.15794 456.2L4.97562 453.926C-1.62313 449.211 -1.66569 439.41 4.89173 434.639L8.15794 432.263L43.2962 410.277L44.4517 399.317L12.6009 369.578C9.34726 366.541 7.75858 361.268 8.78263 356.753C9.44613 353.828 12.6498 349.577 16.249 348.227L58.1299 332.506L60.9943 322.419L34.8109 285.929C32.3246 282.463 32.4961 276.824 34.3001 273.144C35.7072 270.274 39.7671 267.081 43.5341 266.467L87.4932 259.309L92.2717 250.217L74.0654 210.331C72.17 206.178 72.4179 200.977 74.9042 197.227C77.0249 194.029 81.7808 191.477 86.3553 191.646L130.222 193.27L136.793 185.214L126.512 141.461C125.553 137.384 127.65 132.131 130.312 129.678C132.774 127.409 137.832 125.643 141.449 126.497L185.156 136.803L193.219 130.226L191.59 86.3041C191.42 81.7126 193.932 76.981 197.19 74.8256C200.398 72.704 205.689 71.9546 209.315 73.6101L250.115 92.2238L259.204 87.4344L266.123 44.4952C266.886 39.7597 269.984 35.3549 273.838 33.8035C277.902 32.167 282.993 32.6683 286.62 35.2823L322.202 60.926L332.341 58.0075L347.634 17.0494C349.154 12.9781 353.265 9.34276 356.464 8.67857C361.277 7.67984 366.203 9.12593 369.356 12.5081L399.046 44.3623L410.017 43.1981L432.084 8.14097L434.38 4.94554C439.094 -1.61328 448.83 -1.65588 453.6 4.86286L455.998 8.14097Z" fill="#CA4217"/>
<path d="M1056.07 415.575C1038.47 415.575 1022.97 411.625 1009.57 403.725C996.272 395.825 985.872 384.075 978.372 368.475C970.872 352.875 967.122 333.525 967.122 310.425C967.122 287.225 970.822 267.825 978.222 252.225C985.722 236.625 996.172 224.875 1009.57 216.975C1022.97 208.975 1038.47 204.975 1056.07 204.975C1081.47 204.975 1100.82 210.975 1114.12 222.975C1127.42 234.975 1135.32 250.525 1137.82 269.625L1086.82 278.475C1084.52 269.875 1080.87 262.775 1075.87 257.175C1070.97 251.475 1064.37 248.625 1056.07 248.625C1048.67 248.625 1042.12 250.875 1036.42 255.375C1030.82 259.775 1026.47 266.525 1023.37 275.625C1020.27 284.725 1018.72 296.325 1018.72 310.425C1018.72 324.225 1020.32 335.675 1023.52 344.775C1026.72 353.775 1031.12 360.475 1036.72 364.875C1042.42 369.275 1048.87 371.475 1056.07 371.475C1066.37 371.475 1074.07 368.775 1079.17 363.375C1084.27 357.875 1086.82 351.225 1086.82 343.425H1137.52C1137.52 358.925 1134.37 372.075 1128.07 382.875C1121.87 393.575 1112.72 401.725 1100.62 407.325C1088.52 412.825 1073.67 415.575 1056.07 415.575ZM1269.15 415.575C1255.45 415.575 1242.85 412.775 1231.35 407.175C1219.95 401.475 1210.8 392.875 1203.9 381.375C1197.1 369.775 1193.7 355.075 1193.7 337.275C1193.7 318.875 1197.1 303.875 1203.9 292.275C1210.8 280.675 1219.95 272.125 1231.35 266.625C1242.85 261.025 1255.45 258.225 1269.15 258.225C1282.55 258.225 1294.9 261.025 1306.2 266.625C1317.5 272.125 1326.55 280.675 1333.35 292.275C1340.25 303.875 1343.7 318.875 1343.7 337.275C1343.7 355.075 1340.25 369.775 1333.35 381.375C1326.55 392.875 1317.5 401.475 1306.2 407.175C1294.9 412.775 1282.55 415.575 1269.15 415.575ZM1267.35 373.725C1271.95 373.725 1276.4 372.525 1280.7 370.125C1285.1 367.725 1288.75 363.875 1291.65 358.575C1294.55 353.175 1296 346.075 1296 337.275C1296 323.575 1293.55 313.925 1288.65 308.325C1283.75 302.725 1277.85 299.925 1270.95 299.925C1266.35 299.925 1261.75 301.125 1257.15 303.525C1252.65 305.925 1248.9 309.875 1245.9 315.375C1243 320.775 1241.55 328.075 1241.55 337.275C1241.55 350.575 1244.1 359.975 1249.2 365.475C1254.4 370.975 1260.45 373.725 1267.35 373.725ZM1605.88 410.775V324.675C1605.88 316.875 1603.98 311.125 1600.18 307.425C1596.48 303.625 1591.83 301.725 1586.23 301.725C1578.03 301.725 1571.33 305.275 1566.13 312.375C1560.93 319.375 1558.33 331.425 1558.33 348.525H1539.43C1539.43 330.825 1541.03 316.175 1544.23 304.575C1547.43 292.875 1551.83 283.675 1557.43 276.975C1563.03 270.175 1569.43 265.375 1576.63 262.575C1583.93 259.675 1591.68 258.225 1599.88 258.225C1612.48 258.225 1622.78 261.075 1630.78 266.775C1638.88 272.475 1644.83 280.325 1648.63 290.325C1652.53 300.325 1654.48 311.775 1654.48 324.675V410.775H1605.88ZM1412.23 410.775V263.025H1454.53L1459.63 283.875C1464.73 274.975 1471.08 268.475 1478.68 264.375C1486.38 260.275 1494.73 258.225 1503.73 258.225C1516.43 258.225 1526.78 261.075 1534.78 266.775C1542.88 272.475 1548.83 280.325 1552.63 290.325C1556.43 300.325 1558.33 311.775 1558.33 324.675V410.775H1510.03V324.675C1510.03 316.875 1508.13 311.125 1504.33 307.425C1500.53 303.625 1495.93 301.725 1490.53 301.725C1485.03 301.725 1479.98 303.275 1475.38 306.375C1470.78 309.475 1467.08 314.475 1464.28 321.375C1461.58 328.175 1460.23 337.225 1460.23 348.525V410.775H1412.23ZM1924.75 410.775V324.675C1924.75 316.875 1922.85 311.125 1919.05 307.425C1915.35 303.625 1910.7 301.725 1905.1 301.725C1896.9 301.725 1890.2 305.275 1885 312.375C1879.8 319.375 1877.2 331.425 1877.2 348.525H1858.3C1858.3 330.825 1859.9 316.175 1863.1 304.575C1866.3 292.875 1870.7 283.675 1876.3 276.975C1881.9 270.175 1888.3 265.375 1895.5 262.575C1902.8 259.675 1910.55 258.225 1918.75 258.225C1931.35 258.225 1941.65 261.075 1949.65 266.775C1957.75 272.475 1963.7 280.325 1967.5 290.325C1971.4 300.325 1973.35 311.775 1973.35 324.675V410.775H1924.75ZM1731.1 410.775V263.025H1773.4L1778.5 283.875C1783.6 274.975 1789.95 268.475 1797.55 264.375C1805.25 260.275 1813.6 258.225 1822.6 258.225C1835.3 258.225 1845.65 261.075 1853.65 266.775C1861.75 272.475 1867.7 280.325 1871.5 290.325C1875.3 300.325 1877.2 311.775 1877.2 324.675V410.775H1828.9V324.675C1828.9 316.875 1827 311.125 1823.2 307.425C1819.4 303.625 1814.8 301.725 1809.4 301.725C1803.9 301.725 1798.85 303.275 1794.25 306.375C1789.65 309.475 1785.95 314.475 1783.15 321.375C1780.45 328.175 1779.1 337.225 1779.1 348.525V410.775H1731.1ZM2109.06 415.575C2096.66 415.575 2085.01 412.375 2074.11 405.975C2063.21 399.575 2054.36 390.425 2047.56 378.525C2040.86 366.625 2037.51 352.525 2037.51 336.225C2037.51 319.925 2040.86 305.975 2047.56 294.375C2054.26 282.675 2063.06 273.725 2073.96 267.525C2084.86 261.325 2096.56 258.225 2109.06 258.225C2121.46 258.225 2132.26 260.725 2141.46 265.725C2150.66 270.625 2158.06 277.275 2163.66 285.675C2169.36 294.075 2173.06 303.575 2174.76 314.175C2176.56 324.675 2176.21 335.525 2173.71 346.725H2075.46V322.425H2138.61L2131.71 326.925C2132.01 323.425 2131.86 319.875 2131.26 316.275C2130.76 312.675 2129.71 309.375 2128.11 306.375C2126.51 303.275 2124.21 300.825 2121.21 299.025C2118.31 297.125 2114.56 296.175 2109.96 296.175C2104.86 296.175 2100.41 297.425 2096.61 299.925C2092.91 302.325 2090.01 305.875 2087.91 310.575C2085.91 315.175 2084.91 320.825 2084.91 327.525V346.425C2084.91 352.725 2085.81 358.175 2087.61 362.775C2089.41 367.375 2092.06 370.975 2095.56 373.575C2099.16 376.075 2103.66 377.325 2109.06 377.325C2113.46 377.325 2117.31 376.425 2120.61 374.625C2123.91 372.825 2126.21 369.975 2127.51 366.075H2175.21C2173.71 375.275 2170.01 383.625 2164.11 391.125C2158.31 398.625 2150.71 404.575 2141.31 408.975C2132.01 413.375 2121.26 415.575 2109.06 415.575ZM2244.32 410.775V262.125H2292.32V410.775H2244.32ZM2282.12 347.775C2282.12 327.675 2284.67 311.175 2289.77 298.275C2294.87 285.375 2301.32 275.825 2309.12 269.625C2316.92 263.425 2324.87 260.325 2332.97 260.325C2334.57 260.325 2336.17 260.425 2337.77 260.625C2339.37 260.725 2340.87 260.925 2342.27 261.225L2342.72 309.525C2340.22 309.225 2337.67 309.025 2335.07 308.925C2332.47 308.725 2330.02 308.625 2327.72 308.625C2320.72 308.625 2314.52 309.925 2309.12 312.525C2303.82 315.125 2299.67 319.275 2296.67 324.975C2293.77 330.675 2292.32 338.275 2292.32 347.775H2282.12ZM2462.06 415.575C2449.16 415.575 2437.16 412.325 2426.06 405.825C2415.06 399.325 2406.16 390.175 2399.36 378.375C2392.66 366.575 2389.31 352.775 2389.31 336.975C2389.31 319.675 2392.66 305.225 2399.36 293.625C2406.16 281.925 2415.06 273.125 2426.06 267.225C2437.16 261.225 2449.16 258.225 2462.06 258.225C2472.96 258.225 2482.46 260.075 2490.56 263.775C2498.76 267.475 2505.56 272.325 2510.96 278.325C2516.36 284.325 2520.36 290.925 2522.96 298.125C2525.66 305.325 2527.01 312.375 2527.01 319.275L2479.01 318.825C2478.31 314.525 2476.56 310.625 2473.76 307.125C2471.06 303.525 2467.06 301.725 2461.76 301.725C2457.56 301.725 2453.56 302.825 2449.76 305.025C2446.06 307.125 2443.01 310.725 2440.61 315.825C2438.31 320.925 2437.16 327.975 2437.16 336.975C2437.16 345.775 2438.31 352.725 2440.61 357.825C2443.01 362.925 2446.06 366.525 2449.76 368.625C2453.56 370.725 2457.56 371.775 2461.76 371.775C2468.56 371.775 2473.11 370.225 2475.41 367.125C2477.81 363.925 2479.01 359.925 2479.01 355.125H2527.01C2527.01 365.725 2524.66 375.625 2519.96 384.825C2515.26 394.025 2508.11 401.475 2498.51 407.175C2489.01 412.775 2476.86 415.575 2462.06 415.575ZM2623.59 243.975C2614.49 243.975 2607.44 241.675 2602.44 237.075C2597.54 232.375 2595.09 225.775 2595.09 217.275C2595.09 208.975 2597.54 202.375 2602.44 197.475C2607.44 192.475 2614.49 189.975 2623.59 189.975C2632.39 189.975 2639.34 192.475 2644.44 197.475C2649.54 202.375 2652.09 208.975 2652.09 217.275C2652.09 225.775 2649.54 232.375 2644.44 237.075C2639.34 241.675 2632.39 243.975 2623.59 243.975ZM2599.59 410.775V262.125H2647.59V410.775H2599.59ZM2829.66 410.775L2823.51 371.325V315.975C2823.51 308.575 2822.16 302.825 2819.46 298.725C2816.76 294.625 2811.01 292.575 2802.21 292.575C2797.01 292.575 2792.76 293.375 2789.46 294.975C2786.26 296.475 2783.86 298.525 2782.26 301.125C2780.76 303.625 2780.01 306.375 2780.01 309.375H2728.11C2728.11 297.775 2730.86 288.225 2736.36 280.725C2741.86 273.125 2750.11 267.475 2761.11 263.775C2772.11 260.075 2785.81 258.225 2802.21 258.225C2816.51 258.225 2828.81 260.425 2839.11 264.825C2849.51 269.225 2857.51 275.825 2863.11 284.625C2868.71 293.425 2871.51 304.475 2871.51 317.775V410.775H2829.66ZM2783.16 415.575C2769.96 415.575 2758.81 413.375 2749.71 408.975C2740.71 404.475 2733.91 398.425 2729.31 390.825C2724.71 383.225 2722.41 374.825 2722.41 365.625C2722.41 356.925 2724.81 349.425 2729.61 343.125C2734.41 336.725 2741.51 331.775 2750.91 328.275C2760.41 324.775 2772.06 323.025 2785.86 323.025C2794.26 323.025 2801.66 323.475 2808.06 324.375C2814.56 325.275 2821.21 326.375 2828.01 327.675V354.675C2823.01 353.575 2817.81 352.725 2812.41 352.125C2807.11 351.525 2801.91 351.225 2796.81 351.225C2789.71 351.225 2784.06 352.375 2779.86 354.675C2775.76 356.875 2773.71 360.525 2773.71 365.625C2773.71 369.325 2775.56 372.575 2779.26 375.375C2782.96 378.075 2788.81 379.425 2796.81 379.425C2803.61 379.425 2808.96 378.075 2812.86 375.375C2816.76 372.675 2819.51 369.275 2821.11 365.175C2822.71 361.075 2823.51 357.025 2823.51 353.025H2834.76C2834.76 364.425 2832.96 374.875 2829.36 384.375C2825.76 393.875 2820.16 401.475 2812.56 407.175C2804.96 412.775 2795.16 415.575 2783.16 415.575ZM2949.08 410.775V203.775H2997.08V410.775H2949.08ZM978.672 560.475H1028.77L1109.62 682.275H1106.32V560.475H1154.32V761.775H1107.97L1018.72 627.975H1026.67V761.775H978.672V560.475ZM1294.26 766.575C1281.86 766.575 1270.21 763.375 1259.31 756.975C1248.41 750.575 1239.56 741.425 1232.76 729.525C1226.06 717.625 1222.71 703.525 1222.71 687.225C1222.71 670.925 1226.06 656.975 1232.76 645.375C1239.46 633.675 1248.26 624.725 1259.16 618.525C1270.06 612.325 1281.76 609.225 1294.26 609.225C1306.66 609.225 1317.46 611.725 1326.66 616.725C1335.86 621.625 1343.26 628.275 1348.86 636.675C1354.56 645.075 1358.26 654.575 1359.96 665.175C1361.76 675.675 1361.41 686.525 1358.91 697.725H1260.66V673.425H1323.81L1316.91 677.925C1317.21 674.425 1317.06 670.875 1316.46 667.275C1315.96 663.675 1314.91 660.375 1313.31 657.375C1311.71 654.275 1309.41 651.825 1306.41 650.025C1303.51 648.125 1299.76 647.175 1295.16 647.175C1290.06 647.175 1285.61 648.425 1281.81 650.925C1278.11 653.325 1275.21 656.875 1273.11 661.575C1271.11 666.175 1270.11 671.825 1270.11 678.525V697.425C1270.11 703.725 1271.01 709.175 1272.81 713.775C1274.61 718.375 1277.26 721.975 1280.76 724.575C1284.36 727.075 1288.86 728.325 1294.26 728.325C1298.66 728.325 1302.51 727.425 1305.81 725.625C1309.11 723.825 1311.41 720.975 1312.71 717.075H1360.41C1358.91 726.275 1355.21 734.625 1349.31 742.125C1343.51 749.625 1335.91 755.575 1326.51 759.975C1317.21 764.375 1306.46 766.575 1294.26 766.575ZM1484.11 766.575C1474.71 766.575 1465.91 764.875 1457.71 761.475C1449.61 758.075 1443.06 752.775 1438.06 745.575C1433.16 738.275 1430.71 728.925 1430.71 717.525V576.675H1479.01V715.725C1479.01 724.725 1483.46 729.225 1492.36 729.225C1495.16 729.225 1498.11 728.925 1501.21 728.325C1504.41 727.625 1508.11 726.525 1512.31 725.025L1519.36 758.475C1513.26 760.675 1507.41 762.575 1501.81 764.175C1496.31 765.775 1490.41 766.575 1484.11 766.575ZM1413.16 645.075V614.025H1512.61V645.075H1413.16ZM1560.03 614.025H1610.28L1636.38 714.675H1632.18L1655.58 622.875H1700.88L1724.58 714.975H1720.08L1746.18 614.025H1794.18L1745.28 761.775H1697.88L1673.43 674.925H1680.78L1657.38 761.775H1609.38L1560.03 614.025ZM1914.62 766.575C1900.92 766.575 1888.32 763.775 1876.82 758.175C1865.42 752.475 1856.27 743.875 1849.37 732.375C1842.57 720.775 1839.17 706.075 1839.17 688.275C1839.17 669.875 1842.57 654.875 1849.37 643.275C1856.27 631.675 1865.42 623.125 1876.82 617.625C1888.32 612.025 1900.92 609.225 1914.62 609.225C1928.02 609.225 1940.37 612.025 1951.67 617.625C1962.97 623.125 1972.02 631.675 1978.82 643.275C1985.72 654.875 1989.17 669.875 1989.17 688.275C1989.17 706.075 1985.72 720.775 1978.82 732.375C1972.02 743.875 1962.97 752.475 1951.67 758.175C1940.37 763.775 1928.02 766.575 1914.62 766.575ZM1912.82 724.725C1917.42 724.725 1921.87 723.525 1926.17 721.125C1930.57 718.725 1934.22 714.875 1937.12 709.575C1940.02 704.175 1941.47 697.075 1941.47 688.275C1941.47 674.575 1939.02 664.925 1934.12 659.325C1929.22 653.725 1923.32 650.925 1916.42 650.925C1911.82 650.925 1907.22 652.125 1902.62 654.525C1898.12 656.925 1894.37 660.875 1891.37 666.375C1888.47 671.775 1887.02 679.075 1887.02 688.275C1887.02 701.575 1889.57 710.975 1894.67 716.475C1899.87 721.975 1905.92 724.725 1912.82 724.725ZM2057.7 761.775V613.125H2105.7V761.775H2057.7ZM2095.5 698.775C2095.5 678.675 2098.05 662.175 2103.15 649.275C2108.25 636.375 2114.7 626.825 2122.5 620.625C2130.3 614.425 2138.25 611.325 2146.35 611.325C2147.95 611.325 2149.55 611.425 2151.15 611.625C2152.75 611.725 2154.25 611.925 2155.65 612.225L2156.1 660.525C2153.6 660.225 2151.05 660.025 2148.45 659.925C2145.85 659.725 2143.4 659.625 2141.1 659.625C2134.1 659.625 2127.9 660.925 2122.5 663.525C2117.2 666.125 2113.05 670.275 2110.05 675.975C2107.15 681.675 2105.7 689.275 2105.7 698.775H2095.5ZM2215.14 761.775V554.775H2263.14V761.775H2215.14ZM2257.14 662.925L2308.14 614.025H2372.19L2257.14 711.825V662.925ZM2317.89 761.775L2255.94 666.825L2299.89 654.675L2376.09 761.775H2317.89Z" fill="#CA4217"/>
</svg>
